<?xml version="1.0" encoding="UTF-8" standalone="no"?>
<svg
   id="svg"
   version="1.1"
   width="400"
   height="393.75"
   viewBox="0, 0, 400,393.75"
   sodipodi:docname="bismih_icon_light.svg"
   inkscape:version="1.4.2 (ebf0e940d0, 2025-05-08)"
   xmlns:inkscape="http://www.inkscape.org/namespaces/inkscape"
   xmlns:sodipodi="http://sodipodi.sourceforge.net/DTD/sodipodi-0.dtd"
   xmlns="http://www.w3.org/2000/svg"
   xmlns:svg="http://www.w3.org/2000/svg">
  <defs
     id="defs1" />
  <sodipodi:namedview
     id="namedview1"
     pagecolor="#ffffff"
     bordercolor="#000000"
     borderopacity="0.25"
     inkscape:showpageshadow="2"
     inkscape:pageopacity="0.0"
     inkscape:pagecheckerboard="0"
     inkscape:deskcolor="#d1d1d1"
     inkscape:zoom="1.5120861"
     inkscape:cx="122.6782"
     inkscape:cy="146.1557"
     inkscape:window-width="1920"
     inkscape:window-height="1051"
     inkscape:window-x="0"
     inkscape:window-y="0"
     inkscape:window-maximized="1"
     inkscape:current-layer="svg" />
  <g
     id="svgg"
     style="fill:#ffffff"
     transform="rotate(15,196.87747,204.42998)">
    <path
       id="path1"
       d="m 267.08532,58.155279 c -5.89952,0.686756 -19.44843,3.480346 -32.27372,6.652235 -12.18841,3.015156 -207.146937,51.464066 -221.690733,69.135516 -2.116532,3.21457 -6.7957938,11.06961 -8.1440897,13.6692 -8.442848,16.28429 4.8383429,57.2356 24.6437277,75.98369 13.36849,12.65457 26.566261,13.99705 59.379298,6.03532 3.542427,-0.85942 13.942737,-3.05161 23.113077,-4.87133 9.16841,-1.8197 20.91506,-4.69477 26.1026,-6.39033 11.53132,-3.7694 14.48204,-3.9149 17.52978,-0.86718 4.37468,4.37469 3.12532,8.71057 -6.1265,21.27784 -18.99641,25.79997 -29.88451,79.284 -12.18397,74.91603 15.78646,-3.18503 169.37159,-45.25577 183.88588,-50.78154 9.43226,-5.60862 7.67189,-19.72723 -28.78459,-32.04578 -39.74656,-21.77059 -45.09901,-39.6806 -13.70605,-45.86336 19.06432,-3.75583 54.8339,-14.46071 65.17212,-19.50663 2.91775,-1.42395 6.15754,-3.00312 7.19931,-3.51138 9.27123,-4.51437 12.45864,-32.60159 5.73074,-50.51936 C 335.80655,55.205035 284.23324,56.15631 267.08532,58.155279 m 26.94262,38.310975 c 11.5546,4.068166 27.50716,17.593796 29.14063,24.707746 -8.85602,20.99933 -52.57636,51.75963 -89.9109,52.05388 -18.72493,-13.91441 29.27472,-87.854659 60.77027,-76.761626 m -72.46455,11.564296 c 10.96378,6.09024 2.80005,20.10613 0.0214,29.20271 -10.94544,36.03924 -26.51194,55.88537 -38.84448,49.5222 -2.55885,-1.32114 -32.39011,-21.74926 -40.72238,-27.88934 -66.65022,-31.24674 49.89734,-60.845663 79.54552,-50.83557 M 74.123939,153.61456 c 18.427992,3.18547 49.564881,17.52201 60.820721,28.00379 8.32451,7.75028 -1.8139,17.0603 -22.96758,21.08966 -63.218546,12.0396 -83.60205,5.54839 -83.60205,-26.63028 0,-23.20424 10.79994,-28.50819 45.748909,-22.46317 m 138.348651,51.19835 c 11.54867,10.34137 56.10761,35.79264 43.7859,49.67084 -3.00892,2.80911 -20.12543,14.21811 -32.15144,15.82248 -55.05674,11.85767 -71.75577,8.6171 -31.83367,-55.4655 6.47569,-10.74174 12.46639,-13.71575 20.19921,-10.02782"
       stroke="none"
       fill="#fafafa"
       fill-rule="evenodd"
       style="fill:#ffffff;stroke-width:1.94"
       sodipodi:nodetypes="ccccccccscccccccccccccccccccccsccsscc" />
  </g>
</svg>
