<?xml version="1.0" encoding="UTF-8" standalone="no"?>
<!-- Created with Inkscape (http://www.inkscape.org/) -->

<svg
   width="512"
   height="512"
   viewBox="0 0 512 512"
   version="1.1"
   id="svg1"
   inkscape:version="1.4.2 (ebf0e940d0, 2025-05-08)"
   sodipodi:docname="icon.svg"
   xmlns:inkscape="http://www.inkscape.org/namespaces/inkscape"
   xmlns:sodipodi="http://sodipodi.sourceforge.net/DTD/sodipodi-0.dtd"
   xmlns="http://www.w3.org/2000/svg"
   xmlns:svg="http://www.w3.org/2000/svg">
  <sodipodi:namedview
     id="namedview1"
     pagecolor="#ffffff"
     bordercolor="#000000"
     borderopacity="0.25"
     inkscape:showpageshadow="2"
     inkscape:pageopacity="0.0"
     inkscape:pagecheckerboard="0"
     inkscape:deskcolor="#d1d1d1"
     inkscape:document-units="px"
     inkscape:zoom="1.1628592"
     inkscape:cx="241.64576"
     inkscape:cy="277.76364"
     inkscape:window-width="1920"
     inkscape:window-height="1051"
     inkscape:window-x="1920"
     inkscape:window-y="0"
     inkscape:window-maximized="1"
     inkscape:current-layer="svg1" />
  <defs
     id="defs1" />
  <g
     inkscape:label="Katman 1"
     inkscape:groupmode="layer"
     id="layer1" />
  <g
     id="svgg"
     transform="matrix(3.8644549,0,0,3.8644549,-509.01761,-174.48138)"
     style="fill:#ffffff">
    <path
       id="path0"
       d="m 197.827,49.768 c -9.274,1.251 -16.407,8.104 -16.53,15.878 -0.05,3.137 -0.64,3.694 -5.62,5.301 -7.29,2.352 -11.825,5.851 -11.848,9.143 -0.013,1.781 0.745,2.015 4.558,1.408 1.574,-0.25 3.036,0.028 4.78,0.909 0.777,0.393 2.732,1.374 4.345,2.18 1.613,0.806 3.178,1.591 3.477,1.743 0.616,0.315 0.609,0.083 0.126,4.22 -0.638,5.456 -1.401,8.251 -4.255,15.588 -0.93,2.39 -1.763,4.59 -1.851,4.889 -0.301,1.016 -1.358,2.929 -2.402,4.345 -6.125,8.309 -9.122,17.025 -7.59,22.073 0.472,1.559 0.422,1.805 -0.66,3.239 -0.541,0.717 -1.564,2.245 -2.272,3.395 -1.449,2.349 -1.791,2.593 -4.216,3.003 -4.259,0.721 -5.362,2.667 -3.905,6.887 0.999,2.894 0.957,3.837 -0.29,6.436 -2.158,4.497 -1.203,5.809 5.153,7.08 4.369,0.874 10.118,2.3 15.883,3.94 2.538,0.722 5.133,1.373 5.768,1.448 3.287,0.386 5.942,-2.15 5.942,-5.677 0,-1.541 0.104,-1.571 2.336,-0.692 4.514,1.78 9.931,2.527 12.296,1.695 1.172,-0.412 0.866,-0.587 -2.481,-1.417 -11.853,-2.94 -19.157,-9.515 -23.207,-20.892 -1.314,-3.691 -2.521,-10.292 -2.307,-12.613 0.044,-0.467 0.14,-1.729 0.215,-2.804 0.286,-4.108 1.719,-9.729 4.07,-15.97 5.18,-13.749 6.387,-19.175 5.463,-24.552 -0.554,-3.216 -0.585,-3.07 0.722,-3.368 2.582,-0.588 7.673,-5.945 7.673,-8.073 0,-2.134 -5.601,-8.702 -9.252,-10.849 -0.374,-0.219 -0.378,-0.275 -0.06,-0.76 0.189,-0.288 0.58,-1.111 0.87,-1.828 3.701,-9.162 13.119,-13.894 22.985,-11.55 9.801,2.329 14.668,10.8 15.873,27.629 0.788,11.008 2.322,15.515 9.7,28.506 7.261,12.784 9.122,19.703 6.681,24.834 -0.484,1.016 -2.063,3.769 -3.509,6.117 -2.872,4.664 -3.705,6.213 -4.276,7.958 -1.017,3.104 -3.631,3.815 -5.797,1.577 -1.994,-2.059 -2.399,-4.689 -1.373,-8.916 3.905,-16.106 2.6,-24.697 -4.421,-29.103 -1.836,-1.152 -2.09,-1.563 -2.422,-3.923 -0.541,-3.861 -1.588,-7.12 -3.432,-10.694 -1.933,-3.745 -2.699,-4.111 -1.356,-0.648 1.625,4.191 2.596,8.773 2.601,12.272 0.003,1.713 0.349,2.377 2.268,4.354 6.026,6.206 6.884,12.01 3.698,24.993 -1.535,6.254 -1.527,8.254 0.046,11.387 0.556,1.107 0.951,2.072 0.878,2.145 -0.613,0.613 -3.257,-0.965 -6.57,-3.922 -4.167,-3.717 -7.087,-3.598 -8.479,0.348 -0.635,1.798 -2.044,12.661 -2.056,15.848 -0.003,0.762 -0.102,1.803 -0.219,2.314 -0.17,0.734 -0.146,1.032 0.114,1.429 0.181,0.276 0.486,1.032 0.678,1.68 1.115,3.76 3.035,4.935 2.383,1.458 -0.631,-3.368 -0.548,-4.238 1.71,-17.941 0.691,-4.193 1.011,-4.489 3.018,-2.794 5.076,4.287 7.473,5.354 12.028,5.354 1.247,0 2.465,0.106 2.707,0.236 1.582,0.846 2.622,9.111 1.515,12.04 -0.658,1.743 -1.003,3.117 -0.827,3.294 0.366,0.365 1.214,-0.428 1.93,-1.805 2.235,-4.3 2.635,-9.079 1.158,-13.842 l -0.327,-1.055 1.067,-1.029 c 0.842,-0.812 1.387,-1.691 2.576,-4.16 1.433,-2.976 2.561,-4.932 5.69,-9.866 1.565,-2.466 1.767,-2.667 2.054,-2.039 0.418,0.915 -0.721,10.783 -1.627,14.098 -0.328,1.2 -0.523,4.345 -0.269,4.345 0.12,0 0.566,-0.759 0.99,-1.687 2.907,-6.359 4.077,-16.017 2.32,-19.144 -0.371,-0.66 -0.446,-1.051 -0.343,-1.793 1.022,-7.385 -0.792,-13.034 -8.541,-26.588 -6.356,-11.117 -7.684,-14.881 -8.47,-24.009 -1.108,-12.866 -1.626,-15.573 -3.936,-20.575 -4.067,-8.807 -13.402,-13.78 -23.349,-12.438 m -14.123,23.073 c 5.819,5.979 4.998,7.311 -3.584,5.809 -5.367,-0.938 -7.493,-0.953 -12.439,-0.083 -1.117,0.196 -1.041,-0.099 0.356,-1.376 1.607,-1.468 3.874,-2.53 7.289,-3.415 1.586,-0.411 3.582,-1.087 4.436,-1.503 2.186,-1.064 2.381,-1.036 3.942,0.568 m -4.019,6.79 c 0.896,0.161 2.467,0.356 3.49,0.434 2.817,0.214 2.978,0.574 1.014,2.282 -1.262,1.097 -2.152,1.036 -4.365,-0.297 -0.94,-0.565 -2.357,-1.283 -3.151,-1.595 -3.453,-1.357 -2.065,-1.737 3.012,-0.824 m -9.56,46.55 c -0.001,0.09 -0.154,1.581 -0.341,3.314 -0.362,3.346 -0.316,4.895 0.271,9.184 0.415,3.028 0.412,3.034 -1.062,2.061 -0.632,-0.417 -1.357,-0.823 -1.61,-0.902 -1.353,-0.42 -1.159,-3.623 0.571,-9.447 0.866,-2.912 2.174,-5.449 2.171,-4.21 m -2.01,18.759 c 1.838,2.355 4.482,6.212 5.595,8.162 1.74,3.048 4.104,6.487 6.438,9.366 4.807,5.928 3.834,7.87 -2.962,5.911 -4.91,-1.416 -12.135,-3.159 -15.643,-3.774 -5.805,-1.017 -5.773,-0.995 -4.547,-3.239 1.18,-2.16 1.227,-4.853 0.134,-7.741 -1.096,-2.899 -0.992,-3.132 1.479,-3.325 3.271,-0.254 4.677,-1.25 6.208,-4.397 1.424,-2.928 1.702,-3.009 3.298,-0.963"
       stroke="none"
       fill="#deeae1"
       fill-rule="evenodd"
       sodipodi:nodetypes="ccccccsccccccscccccscscccccccccscccccccccccccccccccscccccccccsccccccscccsscccccccccccsccccccccccccccccccccccccc"
       style="fill:#ffffff" />
    <path
       id="path1"
       d="m 206.448,50.174 c 6.453,1.455 11.898,5.903 14.728,12.032 2.31,5.002 2.828,7.709 3.936,20.575 0.786,9.128 2.114,12.892 8.47,24.009 7.749,13.554 9.563,19.203 8.541,26.588 -0.103,0.742 -0.028,1.133 0.343,1.793 1.757,3.127 0.587,12.785 -2.32,19.144 -0.424,0.928 -0.87,1.687 -0.99,1.687 -0.254,0 -0.059,-3.145 0.269,-4.345 0.906,-3.315 2.045,-13.183 1.627,-14.098 -0.287,-0.628 -0.489,-0.427 -2.054,2.039 -3.129,4.934 -4.257,6.89 -5.69,9.866 -1.189,2.469 -1.734,3.348 -2.576,4.16 l -1.067,1.029 0.327,1.055 c 1.477,4.763 1.077,9.542 -1.158,13.842 -0.716,1.377 -1.564,2.17 -1.93,1.805 -0.176,-0.177 0.169,-1.551 0.827,-3.294 1.107,-2.929 0.067,-11.194 -1.515,-12.04 -0.242,-0.13 -1.46,-0.236 -2.707,-0.236 -4.555,0 -6.952,-1.067 -12.028,-5.354 -2.007,-1.695 -2.327,-1.399 -3.018,2.794 -2.258,13.703 -2.341,14.573 -1.71,17.941 0.652,3.477 -1.268,2.302 -2.383,-1.458 -0.192,-0.648 -0.497,-1.404 -0.678,-1.68 -0.26,-0.397 -0.284,-0.695 -0.114,-1.429 0.117,-0.511 0.216,-1.552 0.219,-2.314 0.012,-3.187 1.421,-14.05 2.056,-15.848 1.392,-3.946 4.312,-4.065 8.479,-0.348 3.313,2.957 5.957,4.535 6.57,3.922 0.073,-0.073 -0.322,-1.038 -0.878,-2.145 -1.573,-3.133 -1.581,-5.133 -0.046,-11.387 3.186,-12.983 2.328,-18.787 -3.698,-24.993 -1.919,-1.977 -2.265,-2.641 -2.268,-4.354 -0.005,-3.499 -0.976,-8.081 -2.601,-12.272 -1.343,-3.463 -0.577,-3.097 1.356,0.648 1.844,3.574 2.891,6.833 3.432,10.694 0.332,2.36 0.586,2.771 2.422,3.923 7.021,4.406 8.326,12.997 4.421,29.103 -1.026,4.227 -0.621,6.857 1.373,8.916 2.166,2.238 4.78,1.527 5.797,-1.577 0.571,-1.745 1.404,-3.294 4.276,-7.958 1.446,-2.348 3.025,-5.101 3.509,-6.117 2.441,-5.131 0.58,-12.05 -6.681,-24.834 -7.378,-12.991 -8.912,-17.498 -9.7,-28.506 -1.205,-16.829 -6.072,-25.3 -15.873,-27.629 -9.866,-2.344 -19.284,2.388 -22.985,11.55 -0.29,0.717 -0.681,1.54 -0.87,1.828 -0.318,0.485 -0.314,0.541 0.06,0.76 3.651,2.147 9.252,8.715 9.252,10.849 0,2.128 -5.091,7.485 -7.673,8.073 -1.307,0.298 -1.276,0.152 -0.722,3.368 0.924,5.377 -0.283,10.803 -5.463,24.552 -2.351,6.241 -3.784,11.862 -4.07,15.97 -0.075,1.075 -0.171,2.337 -0.215,2.804 -0.214,2.321 0.993,8.922 2.307,12.613 4.05,11.377 11.354,17.952 23.207,20.892 3.347,0.83 3.653,1.005 2.481,1.417 -2.365,0.832 -7.782,0.085 -12.296,-1.695 -2.232,-0.879 -2.336,-0.849 -2.336,0.692 0,3.527 -2.655,6.063 -5.942,5.677 -0.635,-0.075 -3.23,-0.726 -5.768,-1.448 -5.765,-1.64 -11.514,-3.066 -15.883,-3.94 -6.356,-1.271 -7.311,-2.583 -5.153,-7.08 1.247,-2.599 1.289,-3.542 0.29,-6.436 -1.457,-4.22 -0.354,-6.166 3.905,-6.887 2.425,-0.41 2.767,-0.654 4.216,-3.003 0.708,-1.15 1.731,-2.678 2.272,-3.395 1.082,-1.434 1.132,-1.68 0.66,-3.239 -1.532,-5.048 1.465,-13.764 7.59,-22.073 1.044,-1.416 2.101,-3.329 2.402,-4.345 0.088,-0.299 0.921,-2.499 1.851,-4.889 2.854,-7.337 3.617,-10.132 4.255,-15.588 0.483,-4.137 0.49,-3.905 -0.126,-4.22 -0.299,-0.152 -1.864,-0.937 -3.477,-1.743 -1.613,-0.806 -3.568,-1.787 -4.345,-2.18 -1.744,-0.881 -3.206,-1.159 -4.78,-0.909 -3.813,0.607 -4.571,0.373 -4.558,-1.408 0.023,-3.292 4.558,-6.791 11.848,-9.143 4.98,-1.607 5.57,-2.164 5.62,-5.301 0.168,-10.622 12.638,-18.293 25.151,-15.472 m -26.686,22.099 c -0.854,0.416 -2.85,1.092 -4.436,1.503 -3.415,0.885 -5.682,1.947 -7.289,3.415 -1.397,1.277 -1.473,1.572 -0.356,1.376 4.946,-0.87 7.072,-0.855 12.439,0.083 8.582,1.502 9.403,0.17 3.584,-5.809 -1.561,-1.604 -1.756,-1.632 -3.942,-0.568 m -4.935,6.982 c -0.188,0.305 0.186,0.548 1.846,1.2 0.794,0.312 2.211,1.03 3.151,1.595 2.213,1.333 3.103,1.394 4.365,0.297 1.964,-1.708 1.803,-2.068 -1.014,-2.282 -1.023,-0.078 -2.594,-0.273 -3.49,-0.434 -2.538,-0.456 -4.705,-0.624 -4.858,-0.376 m -5.666,47.823 c -0.814,1.606 -1.815,5.21 -2.415,8.697 -0.587,3.409 -0.542,3.697 0.637,4.063 0.253,0.079 0.978,0.485 1.61,0.902 1.474,0.973 1.477,0.967 1.062,-2.061 -0.587,-4.289 -0.633,-5.838 -0.271,-9.184 0.403,-3.733 0.394,-3.477 0.127,-3.477 -0.117,0 -0.455,0.477 -0.75,1.06 m -3.229,16.677 c -0.075,0.075 -0.577,1.042 -1.115,2.148 -1.531,3.147 -2.937,4.143 -6.208,4.397 -2.471,0.193 -2.575,0.426 -1.479,3.325 1.093,2.888 1.046,5.581 -0.134,7.741 -1.226,2.244 -1.258,2.222 4.547,3.239 3.508,0.615 10.733,2.358 15.643,3.774 6.796,1.959 7.769,0.017 2.962,-5.911 -2.334,-2.879 -4.698,-6.318 -6.438,-9.366 -1.113,-1.95 -3.757,-5.807 -5.595,-8.162 -0.975,-1.25 -1.716,-1.652 -2.183,-1.185"
       stroke="none"
       fill="#04832c"
       fill-rule="evenodd"
       style="fill:#ffffff;fill-opacity:1"
       sodipodi:nodetypes="cccccccsccccsccccccssccccccccscccccccccccccccccccscccccccccscscccccsccccccscccccccsccccccccccccccccccscccccccccccc" />
  </g>
</svg>
