<?xml version="1.0" standalone="no"?>
<!DOCTYPE svg PUBLIC "-//W3C//DTD SVG 20010904//EN"
 "http://www.w3.org/TR/2001/REC-SVG-20010904/DTD/svg10.dtd">
<svg version="1.0" xmlns="http://www.w3.org/2000/svg"
 width="1024.000000pt" height="1024.000000pt" viewBox="0 0 1024.000000 1024.000000"
 preserveAspectRatio="xMidYMid meet">

<g transform="translate(0.000000,1024.000000) scale(0.100000,-0.100000)"
fill="#000000" stroke="none">
<path d="M4999 9131 c-88 -17 -202 -82 -272 -156 -100 -105 -147 -227 -147
-377 1 -235 149 -438 374 -513 l61 -21 -1 -732 c0 -403 -3 -734 -5 -736 -2 -3
-49 -12 -104 -21 -88 -15 -137 -27 -275 -67 -96 -27 -304 -142 -426 -235 -17
-12 -36 -23 -43 -23 -10 0 -286 274 -934 928 -86 86 -148 156 -142 160 14 10
41 68 60 129 13 39 16 80 13 175 -3 108 -7 131 -32 193 -16 38 -35 76 -43 83
-7 7 -13 17 -13 22 0 13 -129 138 -150 145 -11 4 -20 11 -20 16 0 5 -5 9 -11
9 -6 0 -25 6 -42 14 -137 62 -305 62 -444 0 -17 -8 -36 -14 -41 -14 -6 0 -12
-3 -14 -7 -1 -5 -22 -21 -45 -36 -49 -33 -97 -85 -139 -147 -107 -158 -109
-416 -5 -585 38 -63 141 -157 205 -188 166 -81 377 -77 544 11 24 12 35 14 40
6 4 -7 210 -218 457 -470 248 -253 484 -494 524 -536 l74 -77 -35 -43 c-115
-143 -220 -351 -271 -538 -9 -30 -23 -102 -32 -160 -9 -57 -17 -105 -18 -106
-8 -6 -1454 -12 -1463 -7 -5 5 -16 24 -23 43 -76 199 -196 317 -381 374 -42
13 -81 16 -160 13 -122 -4 -162 -14 -249 -59 -277 -143 -368 -519 -189 -783
48 -70 66 -89 133 -137 97 -69 165 -89 314 -95 65 -3 108 0 114 6 6 6 20 11
31 11 53 0 221 103 264 162 7 9 19 23 27 31 20 21 71 124 87 177 l13 45 737
-1 c406 0 740 -2 742 -5 3 -2 14 -60 25 -129 19 -114 48 -226 81 -305 44 -105
119 -242 175 -318 36 -48 65 -92 65 -99 0 -13 -64 -79 -629 -655 -234 -238
-431 -433 -439 -433 -8 0 -26 6 -40 14 -63 32 -105 45 -181 57 -164 25 -345
-29 -454 -135 -42 -40 -97 -111 -97 -124 0 -6 -4 -12 -9 -14 -17 -6 -52 -132
-58 -207 -5 -73 11 -215 27 -236 4 -5 11 -21 15 -35 11 -36 66 -120 102 -155
74 -73 132 -110 228 -146 86 -32 243 -32 338 0 170 57 305 200 352 373 13 50
16 92 13 179 -3 107 -6 118 -41 191 -20 42 -37 80 -37 85 0 5 10 19 23 30 12
11 251 251 532 532 280 281 516 511 523 511 7 0 39 -20 70 -44 194 -148 419
-243 670 -282 l110 -16 7 -252 c3 -138 5 -469 3 -736 -3 -476 -3 -485 -23
-488 -27 -5 -152 -59 -165 -72 -3 -3 -21 -16 -40 -29 -77 -52 -164 -181 -191
-281 -16 -58 -16 -233 -1 -289 32 -112 116 -241 192 -292 19 -13 37 -26 40
-29 16 -16 125 -61 184 -74 85 -20 137 -20 223 0 108 25 189 70 269 149 66 66
134 176 134 216 0 8 6 21 12 27 16 16 18 273 2 293 -6 8 -14 26 -18 41 -11 45
-71 140 -123 191 -49 50 -145 112 -188 123 -14 3 -28 10 -31 15 -3 5 -16 9
-28 9 -49 0 -48 -18 -41 753 l8 723 111 18 c152 23 296 67 418 125 104 49 271
154 297 184 7 9 19 17 25 17 17 0 1076 -1064 1076 -1081 0 -8 -9 -35 -21 -59
-38 -78 -52 -143 -53 -235 -1 -162 47 -280 160 -390 91 -90 88 -87 169 -121
61 -25 86 -29 187 -32 91 -3 130 0 170 13 142 46 273 155 336 279 80 156 80
345 0 502 -29 57 -54 89 -112 143 -21 20 -44 41 -50 47 -6 5 -36 23 -67 38
-150 73 -337 74 -491 2 -31 -14 -63 -26 -70 -26 -7 0 -133 122 -278 272 -146
149 -369 378 -496 507 -127 130 -246 253 -263 273 l-32 37 64 86 c135 182 222
400 262 655 9 57 18 106 20 108 2 2 332 6 734 9 774 7 761 7 761 -39 0 -45 81
-191 135 -243 59 -58 198 -135 242 -135 12 0 25 -4 28 -10 4 -6 55 -10 120
-10 65 0 116 4 120 10 3 6 16 10 28 10 11 0 55 16 96 37 127 61 239 195 273
323 57 214 10 400 -137 545 -112 111 -222 155 -382 155 -105 -1 -164 -15 -264
-65 -65 -33 -187 -154 -212 -210 -10 -22 -22 -47 -27 -56 -5 -9 -12 -33 -15
-53 -4 -20 -15 -41 -25 -46 -20 -11 -1460 -2 -1472 9 -4 3 -14 53 -23 111 -39
250 -127 456 -276 654 l-60 78 53 57 c28 31 270 276 536 545 l483 489 56 -28
c82 -40 153 -55 256 -55 165 0 269 43 389 161 43 42 78 83 78 92 0 10 5 17 10
17 6 0 10 5 10 11 0 6 6 25 14 42 59 131 59 296 0 424 -7 17 -14 36 -14 41 0
6 -3 12 -7 14 -5 2 -21 22 -37 45 -35 53 -141 153 -161 153 -8 0 -15 5 -15 10
0 6 -5 10 -11 10 -6 0 -25 6 -42 14 -161 74 -378 55 -517 -43 -159 -113 -240
-270 -240 -466 0 -87 16 -155 57 -242 l26 -54 -44 -45 c-232 -239 -1022 -1020
-1033 -1022 -7 -2 -47 22 -87 52 -174 130 -429 235 -659 271 -57 9 -105 17
-106 18 -5 5 -8 1466 -4 1470 3 2 32 12 65 22 162 49 294 186 349 363 19 59
24 265 8 286 -6 6 -13 25 -17 43 -11 55 -67 145 -124 203 -111 111 -200 150
-361 155 -58 2 -126 0 -151 -4z m278 -223 c94 -48 147 -112 178 -214 51 -170
-50 -357 -227 -419 -55 -19 -161 -19 -217 1 -54 18 -123 65 -150 101 -11 16
-24 33 -29 38 -4 6 -15 28 -25 50 -61 141 -25 295 92 397 75 64 119 78 231 75
80 -2 103 -6 147 -29z m-2504 -971 c55 -25 147 -108 147 -133 0 -8 4 -14 8
-14 15 0 42 -105 42 -162 0 -83 -42 -180 -105 -244 -102 -102 -259 -129 -390
-69 -57 27 -87 52 -131 110 -53 71 -59 91 -59 199 0 110 15 159 71 226 36 42
122 97 171 110 65 16 185 5 246 -23z m4995 2 c58 -27 145 -114 170 -169 44
-102 35 -234 -22 -324 -69 -108 -163 -159 -292 -159 -74 0 -91 4 -148 32 -73
35 -137 100 -170 171 -30 64 -30 206 0 271 49 107 138 179 244 199 63 12 167
2 218 -21z m-2513 -1550 c172 -23 284 -56 435 -127 251 -118 479 -348 597
-602 36 -77 84 -239 102 -346 14 -78 14 -307 0 -376 -18 -92 -40 -181 -56
-228 -44 -131 -130 -296 -192 -370 -128 -151 -192 -212 -304 -286 -158 -105
-312 -164 -533 -203 -77 -14 -290 -14 -368 0 -366 64 -636 229 -856 524 -61
82 -87 129 -151 270 -22 49 -59 180 -70 247 -53 329 14 655 190 923 62 94 72
106 181 216 265 266 666 407 1025 358z m-3560 -929 c147 -39 235 -123 270
-261 14 -54 15 -73 4 -124 -32 -159 -122 -256 -271 -292 -124 -29 -254 20
-343 129 -60 74 -86 183 -66 273 12 54 34 105 56 131 81 94 117 118 210 140
66 15 92 16 140 4z m7067 -29 c119 -54 198 -177 198 -308 0 -125 -78 -255
-188 -312 -30 -16 -126 -41 -157 -41 -33 0 -127 25 -162 44 -49 25 -120 100
-149 157 -24 47 -27 66 -27 144 -1 76 3 99 25 146 43 94 126 166 215 189 61
15 191 5 245 -19z m-5999 -2510 c65 -28 143 -104 175 -170 58 -122 32 -275
-62 -380 -126 -138 -354 -148 -486 -19 -86 85 -102 120 -108 245 -4 98 -3 104
27 166 17 35 44 75 59 89 39 34 117 79 155 89 54 14 187 3 240 -20z m5025 -7
c61 -32 124 -98 155 -164 31 -65 30 -205 -2 -273 -46 -100 -121 -166 -228
-200 -184 -60 -385 65 -424 263 -33 170 57 329 222 391 79 29 203 21 277 -17z
m-2552 -950 c202 -67 291 -297 190 -492 -26 -51 -104 -122 -164 -150 -76 -35
-202 -36 -273 -3 -69 31 -142 102 -175 168 -26 52 -29 68 -28 153 0 77 5 104
23 143 40 85 110 149 199 181 53 19 169 19 228 0z"/>
</g>
</svg>
